# xmcd
#
# Track frame offsets:
#	150
#	20277
#	31242
#	58587
#	74723
#	96601
#	110884
#	124224
#	139426
#	153587
#	166025
#	182313
#	196070
#	215821
#
# Disc length: 3240
#
# Revision: 2
# Processed by: cddbd v1.5.1PL0 Copyright (c) Steve Scherf et al.
# Submitted via: audiograbber 1.82.02
# Normalized: r1:DSETVAR1
#
DISCID=d10ca60e
DTITLE=Various Artist - Hot Hits Dancin' Country Vol. 12
DYEAR=1998
DGENRE=Country
TTITLE0=Montgomery Gentry - Hillbilly Shoes
TTITLE1=Dwight Yoakam - Crazy Little Thing Called Love
TTITLE2=The Tractors - I Wouldn't Tell You No Lie (Extended CD Track)
TTITLE3=Lila McCann - With You
TTITLE4=Lonestar - Saturday Night
TTITLE5=Wade Hayes - Tore Up From The Floor Up
TTITLE6=Reba McEntire - Wrong Night
TTITLE7=Billy Ray Cyrus - Busy Man
TTITLE8=Lee Ann Womack - I'll Think Of A Reason Later
TTITLE9=Clay Walker - You're Beginning To Get To Me
TTITLE10=Aaron Tippin - For You I Will
TTITLE11=Trisha Yearwood - Powerful Thing
TTITLE12=Shane Minor - Slave To The Habit
TTITLE13=The Mavericks - La Mucara
EXTD=
EXTT0=
EXTT1=
EXTT2=
EXTT3=
EXTT4=
EXTT5=
EXTT6=
EXTT7=
EXTT8=
EXTT9=
EXTT10=
EXTT11=
EXTT12=
EXTT13=
PLAYORDER=
